<?xml version="1.0" encoding="utf-8"?>
<!-- Generator: Adobe Illustrator 21.0.2, SVG Export Plug-In . SVG Version: 6.00 Build 0)  -->
<svg version="1.1"
	 id="svg2" xmlns:cc="http://creativecommons.org/ns#" xmlns:dc="http://purl.org/dc/elements/1.1/" xmlns:rdf="http://www.w3.org/1999/02/22-rdf-syntax-ns#" xmlns:svg="http://www.w3.org/2000/svg"
	 xmlns="http://www.w3.org/2000/svg" xmlns:xlink="http://www.w3.org/1999/xlink" x="0px" y="0px" viewBox="0 0 1138 384"
	 style="enable-background:new 0 0 1138 384;" xml:space="preserve">
<style type="text/css">
	.st0{fill:#E46025;}
	.st1{fill:#2556A6;}
	.st2{fill:#C52034;}
</style>
<g id="g20" transform="translate(766.9762,221.3633)">
	<path id="path22" class="st0" d="M188.7-172.5c-74.8,0-136.2,63.3-136.3,140.4c-0.1,77.6,61.1,141,136.3,141.2
		c75.3,0.2,136.9-63.2,136.9-141C325.5-109.4,264-172.6,188.7-172.5 M304.9-84.2c-2.6,1.1-5.1,2.2-7.3,3.2
		c-33.6-61.6-83.1-83.7-149.9-65.4c-0.9-2.2-1.9-4.8-2.9-7.4C197.7-177.1,275.4-154.1,304.9-84.2 M187-142.5
		c28.8-0.7,53.6,8.9,74.3,27.9c-22.8,23.5-45.3,46.7-67.7,69.8v-82.3c6.8,2.4,13.4,4.6,20,6.9c0.1-0.2,0.2-0.3,0.3-0.5
		C204.9-127.9,196-135.2,187-142.5 M114.3,48C93.5,27.6,82.5,2.8,80.9-26.8h94.8c-18.4,19-37.2,38.4-56.1,57.9
		c-2.6-5.4-5.5-11.6-8.5-17.8c-0.3,0-0.5,0.1-0.8,0.1C111.7,24.9,113,36.5,114.3,48 M145.2-112.7c-11.2,1.4-22.4,2.8-33.6,4.1
		c19.8-21.5,43.9-32.8,72.6-34.5v98.7c-18.9-19.4-37.7-38.9-56.7-58.5c5.8-2.9,11.8-6,17.8-9.1C145.2-112.2,145.2-112.5,145.2-112.7
		 M176.8-36.7H96.4c2.3-7.1,4.5-13.8,6.7-20.5c-0.2-0.1-0.3-0.2-0.5-0.4c-7,9.2-14.1,18.5-21.2,27.8c-5.8-14.8,11.5-62.7,27.6-76.8
		C131.6-83.3,154.2-60.1,176.8-36.7 M184.2-18.9v82.6c-7-2.4-13.6-4.7-20.1-7l-0.2,0.5l27,21.9c-28.7,0.8-53.5-8.9-74.4-28
		C139.1,27.6,161.7,4.3,184.2-18.9 M193.6-18.2c18.5,19,37.4,38.5,56.2,58c-5.3,2.7-11.3,5.7-17.3,8.8c0,0.3,0.1,0.5,0.1,0.8
		c11.2-1.4,22.4-2.8,33.6-4.1c-19.8,21.5-43.9,32.8-72.7,34.5V-18.2z M201.5-26.9h79.9c-2.3,7.1-4.5,13.9-6.8,20.8
		c0.2,0.1,0.3,0.2,0.5,0.2c7.1-9.3,14.2-18.6,21.3-27.9c0.7,29.6-8.6,55.2-27.1,76.7C246.5,19.5,223.9-3.7,201.5-26.9 M202.1-36.6
		c18.4-19,37.3-38.4,56.2-57.8c2.6,5.3,5.6,11.6,8.6,17.9c0.2-0.1,0.5-0.1,0.7-0.2c-1.3-11.6-2.7-23.1-4-34.7
		c20.8,20.4,31.8,45.2,33.4,74.9H202.1z M138.1-151.2c1.1,2.7,2.1,5.4,3,7.6C81.2-108.9,59.9-57.9,77.7,10.7
		c-0.4,0.2-1.4,0.7-2.4,1.1c-1.6,0.7-3.3,1.4-4.9,2.1C46.8-46,74.1-123.3,138.1-151.2 M73,20.7c2.6-1.1,5.2-2.2,8-3.4
		c13.2,29,33.6,50.3,62,62.7c28.3,12.4,57.2,12.8,86.8,2.2c1.2,2.9,2.2,5.6,3.3,8.3C174.1,115,99.5,85.8,73,20.7 M239.8,87.9
		c-1.1-2.7-2.2-5.3-3.1-7.6c59.8-34.7,81.2-85.7,63.5-154.5c2-0.9,4.6-2,7.2-3.1C330.2-21.2,306.6,58.2,239.8,87.9"/>
</g>
<g id="g24" transform="translate(297.4894,131.4288)">
	<path id="path26" class="st1" d="M-1.8,37.3C-10,44.6-17.9,51.7-26.1,59c7.5,6.8,14.9,13.4,22.4,20.1c2.9-2.6,5.6-5,8.4-7.5
		C0,67.3-4.5,63.2-9.2,59c2.5-2.3,4.9-4.3,7.4-6.5c6.4,5.7,12.6,11.3,18.9,17C9.7,76.1,2.6,82.5-4.6,89
		c-9.2-8.3-18.3-16.4-27.4-24.6c-7.6,6.8-14.9,13.4-22.5,20.2c7.5,6.7,14.8,13.4,22.3,20.1c2.8-2.6,5.6-5,8.4-7.6
		c-4.8-4.3-9.3-8.4-13.9-12.5c1.9-1.7,3.7-3.3,5.7-5.1c6.3,5.6,12.5,11.2,19,17c-6.5,5.8-12.8,11.4-19.2,17.1
		c-9.2-8.3-18.3-16.4-27.4-24.6c-8.1,7.3-15.9,14.3-23.9,21.5c7.5,6.8,14.9,13.4,22.4,20.1c2.9-2.6,5.6-5,8.4-7.6
		c-4.8-4.3-9.2-8.3-13.8-12.5c2.4-2.2,4.7-4.3,7.1-6.4c6.4,5.8,12.6,11.3,18.9,17.1c-7.2,6.5-14.2,12.7-21.3,19
		c-9.3-8.4-18.3-16.4-27.4-24.6c-7.2,6.4-14,12.6-21.2,19c7.5,6.8,14.9,13.4,22.3,20.1c2.9-2.6,5.6-5,8.4-7.5
		c-4.7-4.3-9.2-8.3-13.9-12.6c1.6-1.4,2.9-2.5,4.3-3.8c6.4,5.7,12.6,11.3,18.9,17c-6.1,5.5-12,10.8-18,16.2
		c-9.2-8.2-18.3-16.4-27.4-24.5c-1.9,1.6-3.5,3-5.6,4.8c0-3.1,0.1-5.5,0-8c-0.1-2.1,0.6-3.6,2.2-5.1c32.7-29.2,65.4-58.5,98.1-87.8
		c4.3-3.9,8.7-7.8,13.1-11.8C-19.6,21.3-30.9,11.2-42.3,1c-8.1,7.2-16,14.3-24.2,21.7c6.8,6.1,13.5,12.1,20.3,18.2
		c2.9-2.6,5.6-5,8.4-7.6c-4-3.6-7.9-7.1-11.8-10.7c2.7-2.4,5-4.4,7.4-6.5c5.9,5.3,11.5,10.4,17.3,15.6c-7.4,6.6-14.5,13-21.7,19.4
		c-8.7-7.8-17.2-15.4-25.8-23.1C-80,34.8-87.4,41.4-95,48.2c6.9,6.2,13.5,12.1,20.2,18.2c2.9-2.6,5.6-5,8.4-7.5
		c-4-3.6-7.7-7.1-11.7-10.7c2-1.8,3.7-3.3,5.6-5.1c5.9,5.3,11.5,10.3,17.3,15.6c-6.5,5.8-12.8,11.4-19.2,17.1
		C-83,68.1-91.5,60.4-100,52.8c-7,6.3-14,12.4-21.4,19c0-3.3-0.1-5.8,0.1-8.3c0.1-1.1,0.6-2.3,1.4-3C-100.8,43.2-81.5,26-62.3,8.8
		c4.7-4.3,9.5-8.5,14.4-12.9C-60.9-15.7-73.5-27-86.1-38.4c-8.2,7.4-16.1,14.5-24.2,21.7C-101.8-9-93.5-1.6-85.1,5.9
		c3-2.7,5.6-5.1,8.4-7.6c-5.7-5.1-11.1-10-16.7-15.1c2.6-2.3,4.9-4.4,7.3-6.5c7.2,6.5,14.2,12.8,21.3,19.2
		c-7.5,6.7-14.6,13-21.7,19.4c-10.1-9.1-19.9-17.8-29.7-26.6c-1.7,1.4-3.2,2.7-5.2,4.3c0-3.8,0.1-6.8,0-9.9c-0.1-2.2,0.6-3.6,2.2-5
		c8.6-7.5,17.1-15.2,25.7-22.9c-0.6-0.6-1.1-1.2-1.6-1.7c-7-6.3-13.7-12.8-21-18.7c-4.1-3.4-6.1-6.9-5.4-12.2
		c0.2-1.7,0.5-2.7,2.3-3.3c5-1.7,8.8-5,10.7-9.9c2.1-5.4,3.6-10.9,5.4-16.3c0.9-2.5,2-5,3.2-7.3c0.8-1.5,2.6-2.7,0.4-4.3
		c-1.8-1.3-4.9-0.5-6.1,1.1c-2.2,3.1-4.4,6.1-6.8,9c-10.2,12.5-27.4,6.2-31.8-6.1c-2-5.6-2.9-6-8.8-5.1c-1.7,0.3-3.3,0.6-5.2,1
		c0.4,0.5,0.6,0.8,0.8,0.9c6.7,2.9,9.7,7.7,9.3,15.3c-0.4,8.5,3.2,15.4,11.2,19.5c1.6,0.8,3.3,1.6,5,2.5c0.7,0.3,1.5,0.6,1.8,1.2
		c1.2,2.1-0.2,9.5-2,11.2c-8.6,7.7-17.2,15.4-25.8,23.2c8.8,7.9,17.5,15.7,26.1,23.5c0.7,0.6,1.7,1.4,1.8,2.2
		c0.2,3.9,0.1,7.9,0.1,12.3c-2.1-1.7-3.5-3-5.2-4.3c-10,8.9-19.8,17.8-29.7,26.6c-7.4-6.6-14.5-13-21.7-19.5
		c7.3-6.5,14.2-12.8,21.3-19.1c2.5,2.2,4.8,4.3,7.3,6.5c-5.7,5.1-11.1,10.1-16.7,15.1c2.9,2.6,5.6,5,8.4,7.5
		c8.5-7.6,16.8-15.1,25.2-22.7c-8.2-7.3-16.1-14.4-24.2-21.7c-12.8,11.5-25.5,22.9-38.2,34.3c23.4,21,46.3,41.8,69.6,62.1
		c4.8,4.1,3.8,8.4,3.8,13.8c-7.4-6.6-14.2-12.7-21.2-19c-8.7,7.8-17.2,15.4-25.8,23.1c-6.5-5.8-12.7-11.4-19.1-17.2
		c5.9-5.3,11.5-10.4,17.4-15.6c2,1.8,3.7,3.4,5.5,5.1c-4,3.7-7.8,7.1-11.7,10.7c2.9,2.6,5.5,4.9,8.4,7.5
		c6.8-6.1,13.4-12.1,20.3-18.2c-7.7-6.9-15-13.5-22.5-20.2c-8.7,7.8-17.2,15.4-25.8,23.1c-7.3-6.5-14.4-12.9-21.7-19.5
		c5.9-5.3,11.7-10.5,17.4-15.6c2.6,2.3,4.8,4.3,7.2,6.5c-4,3.7-7.8,7.1-11.7,10.7c2.9,2.6,5.5,5,8.4,7.5
		c6.9-6.2,13.5-12.2,20.2-18.3C-193.1,15.2-201,8.1-209,1c-11.5,10.4-22.8,20.5-34.2,30.7c0.8,0.7,1.3,1.2,1.9,1.7
		c35.7,32,71.3,63.9,107,95.9c4.5,4,5.8,8.6,3.8,14.6c-1.7-1.4-3.3-2.8-5-4.4c-9.2,8.2-18.2,16.4-27.4,24.5
		c-6.1-5.5-12-10.7-18-16.2c6.5-5.8,12.7-11.4,19-17c1.5,1.4,2.8,2.5,4.2,3.9c-4.7,4.3-9.2,8.3-13.8,12.5c2.8,2.5,5.5,5,8.4,7.5
		c7.5-6.7,14.8-13.3,22.3-20.1c-7.2-6.4-14.1-12.7-21.2-19c-9.3,8.3-18.2,16.4-27.4,24.6c-7.2-6.4-14.1-12.6-21.2-19.1
		c6.5-5.8,12.7-11.4,19-17c2.5,2.2,4.7,4.3,7,6.4c-4.7,4.3-9.2,8.3-13.9,12.5c2.9,2.6,5.7,5,8.5,7.5c7.5-6.8,14.8-13.3,22.3-20.1
		c-8-7.2-16-14.3-23.9-21.5c-9.3,8.3-18.3,16.4-27.4,24.6c-6.5-5.8-12.7-11.4-19.1-17.2c6.5-5.9,12.7-11.4,19-17
		c2,1.8,3.7,3.4,5.6,5.1c-4.7,4.2-9.2,8.3-13.9,12.5c2.9,2.6,5.6,5.1,8.4,7.5c7.6-6.8,14.9-13.4,22.3-20.1
		c-7.7-6.9-15-13.5-22.5-20.2c-9.2,8.3-18.3,16.4-27.4,24.6c-7.3-6.6-14.4-12.9-21.7-19.5c6.4-5.8,12.6-11.3,19-17
		c2.5,2.3,4.8,4.4,7.3,6.6c-4.7,4.3-9.2,8.3-13.8,12.5c2.9,2.6,5.6,5,8.4,7.5c7.6-6.8,14.9-13.4,22.3-20.1
		c-8.1-7.3-16-14.4-24.2-21.7c-12,10.8-23.8,21.4-35.8,32.2c53.3,47.8,106.4,95.4,159.6,143.1C-72.4,164.8-19.3,117.3,34,69.5
		C21.9,58.7,10.1,48.1-1.8,37.3 M-121.3,118.1v-15.9c3.2,2.8,5.9,5.3,8.8,7.9C-115.4,112.7-118.1,115.2-121.3,118.1 M-121.4,76.7
		c6.1,5.5,11.7,10.5,17.7,15.8c2.7-2.4,5.3-4.8,8.3-7.5c-3.9-3.6-7.7-7.1-11.7-10.7c2.4-2.2,4.6-4.2,7-6.3
		c5.8,5.2,11.4,10.2,17.4,15.6c-7.1,6.4-14.1,12.7-21.2,19.1c-5.5-5-11-9.8-16.3-14.7c-0.7-0.6-1-1.9-1.1-2.9
		C-121.5,82.5-121.4,80-121.4,76.7 M-121.1-54.7c3.8,3.4,7.2,6.5,10.9,9.7c-3.6,3.2-7,6.3-10.9,9.7V-54.7z M-130-35.2
		c-3.8-3.4-7.3-6.5-11-9.8c3.6-3.2,7-6.3,11-9.9V-35.2z M-133.6,181.1c2.9,2.3,4.5,4.8,3.8,8.5c-0.2,1,0,2.1,0,4
		c-8.5-7.6-16.4-14.7-24.6-22c8.1-7.3,16-14.4,23.9-21.5c1.8,5.1,0.8,9.6-2.9,12.9c-3.3,3-6.6,5.9-10.2,9.2
		C-140.2,175.3-137.1,178.5-133.6,181.1 M-130.1,118c-3.2-2.9-5.9-5.3-8.8-7.9c2.9-2.6,5.6-5.1,8.8-7.9V118z M-129.9,85.7
		c-0.1,0.8-0.7,1.8-1.4,2.4c-5.2,4.8-10.5,9.5-16,14.5c-7-6.3-14-12.6-21.3-19.1c6-5.4,11.5-10.4,17.3-15.5c2.4,2.1,4.6,4.1,7.1,6.3
		c-3.9,3.5-7.7,6.9-11.8,10.7c2.8,2.5,5.4,4.9,8.4,7.5c5.8-5.2,11.5-10.3,17.7-15.9C-129.8,80.1-129.7,82.9-129.9,85.7 M-146,23.9
		c2.8,2.5,5.4,4.9,8.3,7.5c2.4-2.1,4.9-4.2,7.3-6.4c2,6.5,0.6,9.6-6.9,14.8c-0.7-0.6-1.5-1.2-2.2-1.8c-5.5-4.9-11-9.9-16.8-15.1
		c7.3-6.5,14.2-12.8,21.3-19.2c1.8,1.7,3.6,3.2,5.6,5.1C-135,13.9-140.4,18.8-146,23.9 M-121.8,8.9c1.9-1.8,3.6-3.4,5.5-5.2
		c7.1,6.4,14.1,12.7,21.4,19.2c-6.5,5.8-12.7,11.4-18.9,16.9c-5.7-3.5-9.5-7.6-7-14.8c2.4,2.1,4.7,4.1,7.3,6.4
		c2.7-2.5,5.5-4.9,8.4-7.5C-110.8,18.9-116.2,14-121.8,8.9 M-120.7,193c-1.7-4.5-0.9-8.2,2.4-11.2c3.5-3.1,6.9-6.2,10.6-9.6
		c-3.6-3.2-6.8-6.4-10.3-9.2c-2.5-2.1-4.1-4.3-3.5-7.7c0.3-1.6,0-3.2,0-5.7c8.5,7.7,16.4,14.7,24.5,22
		C-104.9,178.8-112.8,185.9-120.7,193"/>
</g>
<g id="g28" transform="translate(475.208,209.5461)">
	<path id="path30" class="st2" d="M57.4-145c10.5,18.2,20.5,35.5,30.9,53.6c10.5-18.1,20.5-35.5,31-53.5
		c37.2,64.5,74.1,128.4,111.4,193.2h-61.8c10.5,18.2,20.4,35.5,30.7,53.5H-22.9C-12.7,84-2.8,66.7,7.7,48.5h-61.8
		C-16.8-16.3,20.1-80.2,57.4-145 M57.4-128.3C24.9-71.8-7.2-16.2-39.4,39.6c1.1,0.3,1.4,0.5,1.7,0.5c11.7,0,23.5-1,35,0.3
		c11.7,1.3,18.4-2.7,23-13.3c3.4-8,8.5-15.4,13.2-23.5c-3.4-0.2-5.9-0.3-9.1-0.5c11.1-19.3,21.8-37.9,33-57.2
		c1.6,2.6,2.7,4.6,3.9,6.5c7.5,13,15.1,25.9,22.4,38.9c1.5,2.7,3.2,3.5,6.2,3.5c11.4-0.2,22.7-0.1,34.1-0.1c1.2,0,2.4-0.2,4.1-0.4
		C104.4-46.7,81.1-87.1,57.4-128.3 M119.4-54.1c11.1,19.3,21.9,38,33,57.4c-15.8,0-30.3,0.7-44.7-0.2c-8.9-0.6-14.1,2-17.9,10.2
		c-4.1,9-9.8,17.4-15,26.5h141.4C183.8-16.4,151.7-72,119.3-128.3c-8.5,14.8-16.6,28.5-24.3,42.4c-0.9,1.6-0.6,4.5,0.3,6.1
		c4.4,8.1,9.1,16,13.7,24c1.7,3,3.5,6,5.6,9.5C116.3-49.1,117.6-51.2,119.4-54.1 M185.3,93.5c-8.5-14.8-16.5-28.7-24.8-42.6
		c-0.8-1.4-3.4-2.4-5.2-2.4c-9.9-0.2-19.8-0.1-29.6-0.1H117c1.5,3.2,2.6,5.5,3.8,8.1H55.6c0.7-1.5,1.2-2.5,1.7-3.4
		c8-14,16-28,24.2-41.9c1.4-2.4,1.6-4.2,0.1-6.7c-5.9-9.9-11.6-19.9-17.3-29.9c-0.6-1.1-1.4-2-2.5-3.4C38.3,12.2,15,52.6-8.6,93.5
		H185.3z"/>
</g>
</svg>
